<svg xmlns="http://www.w3.org/2000/svg" viewBox="0.000103876 7.5441 40 24.91">
  <path d="m13.318 19.138 11.558 11.558c.053-1.026.1-3.289-.29-6.001-.7-4.888-2.503-8.904-5.212-11.613-2.71-2.71-6.726-4.512-11.613-5.213-3.637-.522-6.47-.261-6.588-.25A1.22 1.22 0 0 0 .075 8.717c-.011.12-.272 2.951.25 6.588.7 4.888 2.503 8.904 5.212 11.613 2.71 2.71 6.726 4.512 11.614 5.213 1.8.258 3.402.325 4.576.325.595 0 1.08-.018 1.424-.035L11.593 20.862a1.22 1.22 0 1 1 1.725-1.724zM39.946 16.078a1.22 1.22 0 0 0-1.098-1.098c-.326-.03-8.035-.71-12.524 3.779-.175.174-.342.354-.501.538.525 1.572.921 3.26 1.178 5.052.082.573.146 1.127.196 1.656l3.186-3.187a1.22 1.22 0 0 1 1.725 1.725l-4.756 4.756a24.916 24.916 0 0 1-.088 2.216 3.64 3.64 0 0 1-.177.825c2.709-.25 6.448-1.105 9.08-3.737 4.49-4.49 3.81-12.198 3.779-12.525z" fill="#438124"/>
</svg>