<?xml version="1.0" standalone="no"?>
<!DOCTYPE svg PUBLIC "-//W3C//DTD SVG 20010904//EN"
 "http://www.w3.org/TR/2001/REC-SVG-20010904/DTD/svg10.dtd">
<svg version="1.0" xmlns="http://www.w3.org/2000/svg"
 width="1280.000000pt" height="1280.000000pt" viewBox="0 0 1280.000000 1280.000000"
 preserveAspectRatio="xMidYMid meet">
<metadata>
Created by potrace 1.14, written by Peter Selinger 2001-2017
</metadata>
<g transform="translate(0.000000,1280.000000) scale(0.100000,-0.100000)"
fill="#000000" stroke="none">
<path d="M659 10376 c-2 -2 -60 -7 -129 -10 -69 -3 -134 -8 -145 -10 -11 -2
-38 -7 -60 -11 -81 -14 -164 -67 -225 -145 -33 -42 -71 -135 -75 -185 -15
-171 -20 -339 -19 -665 0 -403 5 -578 18 -598 4 -7 2 -12 -4 -12 -6 0 -8 -4
-5 -10 3 -5 8 -40 10 -77 6 -100 18 -245 29 -348 4 -33 9 -82 11 -110 3 -27 8
-67 11 -88 7 -48 10 -69 18 -142 4 -33 9 -71 13 -85 3 -14 7 -36 8 -50 8 -67
16 -127 21 -141 2 -9 7 -34 9 -55 3 -22 8 -52 12 -69 7 -31 9 -42 16 -85 2
-14 10 -52 17 -85 7 -33 13 -64 14 -70 2 -5 8 -35 14 -65 7 -30 13 -64 15 -75
2 -11 6 -27 9 -35 6 -16 25 -99 33 -138 2 -12 6 -26 9 -30 3 -5 8 -22 10 -38
9 -44 14 -65 30 -116 8 -27 13 -48 10 -48 -3 0 0 -9 6 -21 6 -11 13 -28 15
-37 2 -9 8 -32 14 -49 5 -18 7 -33 4 -33 -3 0 -1 -6 4 -12 9 -11 14 -26 29
-83 1 -5 16 -50 33 -100 17 -49 33 -97 36 -105 14 -47 88 -247 107 -290 12
-27 15 -34 54 -130 14 -36 35 -84 45 -107 10 -23 19 -45 19 -48 0 -4 9 -20 21
-36 11 -16 18 -29 14 -29 -5 0 136 -281 200 -398 81 -147 312 -507 351 -546 8
-8 14 -17 14 -21 0 -9 90 -123 220 -280 85 -102 383 -405 479 -486 35 -30 69
-58 75 -64 6 -5 34 -28 61 -49 28 -22 55 -44 60 -50 6 -6 27 -22 47 -36 21
-14 38 -28 38 -32 0 -5 7 -8 15 -8 8 0 15 -4 15 -10 0 -5 6 -10 14 -10 8 0 16
-4 18 -9 4 -11 176 -131 188 -131 4 0 10 -4 12 -8 6 -14 258 -166 431 -260 92
-50 169 -90 170 -90 1 1 40 -18 87 -41 46 -22 90 -41 97 -41 7 0 13 -4 13 -10
0 -5 6 -10 13 -10 7 0 35 -11 63 -24 27 -13 114 -49 194 -81 80 -31 154 -61
165 -66 20 -8 251 -88 270 -93 6 -2 17 -6 25 -9 8 -3 33 -11 55 -17 22 -6 47
-14 55 -17 27 -11 409 -116 465 -128 101 -22 122 -27 135 -32 8 -3 26 -7 40
-9 14 -2 43 -7 65 -13 60 -14 187 -39 235 -46 14 -2 25 -4 25 -5 0 -1 9 -3 20
-5 36 -5 99 -16 160 -27 33 -6 71 -12 85 -13 14 -2 45 -6 70 -10 25 -4 61 -9
80 -11 19 -1 44 -5 55 -7 18 -4 94 -13 190 -23 17 -1 48 -5 70 -8 36 -5 87 -9
240 -21 76 -6 192 -15 270 -21 102 -8 955 -12 989 -5 28 6 -54 90 -1845 1881
-1857 1858 -1912 1915 -1923 1983 -1 7 -5 17 -8 22 -4 6 -6 53 -6 104 1 82 5
101 30 154 30 61 35 68 91 125 33 33 132 88 177 97 41 9 143 6 178 -4 17 -5
32 -8 32 -5 0 2 24 -8 53 -23 41 -22 451 -427 1926 -1900 1031 -1030 1877
-1873 1880 -1873 16 0 13 862 -2 887 -4 6 -3 14 3 18 6 4 8 10 5 15 -3 5 -8
53 -10 107 -3 54 -7 125 -10 158 -9 106 -16 189 -19 240 -2 28 -7 70 -10 95
-3 25 -8 66 -11 93 -5 43 -11 95 -20 172 -8 67 -35 249 -41 280 -2 11 -6 38
-9 60 -7 47 -13 80 -15 80 -1 0 -3 11 -5 25 -4 27 -42 233 -50 265 -4 20 -43
194 -50 228 -2 10 -7 27 -10 37 -3 10 -8 28 -10 39 -3 12 -7 30 -10 41 -3 11
-7 30 -10 41 -2 12 -9 36 -15 54 -6 18 -13 43 -15 56 -3 13 -12 49 -21 79 -43
141 -57 188 -71 230 -8 25 -16 52 -18 60 -8 33 -96 273 -154 418 -56 142 -80
196 -134 312 -12 25 -22 47 -22 50 -1 6 -124 250 -157 310 -14 25 -37 68 -53
95 -15 28 -33 59 -39 70 -6 11 -13 22 -16 25 -3 3 -19 28 -34 55 -16 28 -36
58 -44 68 -8 9 -11 17 -6 17 5 0 4 4 -1 8 -6 4 -42 54 -80 112 -38 58 -86 126
-105 151 -19 26 -44 59 -55 75 -24 34 -146 187 -154 194 -3 3 -31 34 -61 70
-59 69 -60 71 -161 176 -152 158 -425 404 -448 404 -6 0 -11 4 -11 8 0 4 -24
25 -52 47 -29 21 -57 43 -63 47 -97 79 -424 292 -577 376 -32 18 -82 45 -110
61 -64 35 -233 119 -308 153 -30 14 -85 40 -122 57 -37 17 -69 31 -72 31 -3 0
-29 11 -59 24 -29 14 -80 35 -113 46 -32 12 -66 24 -74 27 -8 4 -18 5 -22 5
-5 -1 -8 2 -8 7 0 5 -17 13 -37 19 -34 9 -193 63 -233 79 -8 3 -20 7 -25 8 -6
2 -53 16 -105 33 -85 27 -176 54 -190 56 -3 1 -11 5 -17 9 -7 5 -13 6 -13 3 0
-2 -15 0 -32 5 -37 12 -249 67 -282 73 -11 3 -50 11 -86 20 -140 31 -216 47
-240 51 -14 2 -36 6 -50 9 -28 7 -73 15 -110 21 -27 4 -70 12 -110 20 -14 3
-45 7 -70 10 -25 3 -56 7 -70 10 -14 2 -41 7 -60 9 -19 3 -46 8 -60 10 -14 3
-50 7 -80 10 -30 3 -73 8 -95 11 -39 6 -80 10 -180 21 -93 10 -130 13 -220 19
-147 10 -154 11 -160 17 -3 3 -22 2 -41 -2 -18 -4 -34 -5 -34 -1 0 3 -24 7
-53 9 -86 4 -904 11 -908 8z"/>
<path d="M11718 8015 c-2 -2 -52 -5 -113 -8 -150 -8 -263 -16 -305 -22 -19 -2
-66 -7 -105 -11 -38 -3 -72 -8 -75 -9 -3 -2 -37 -7 -75 -11 -91 -9 -110 -12
-110 -14 0 -2 -11 -4 -25 -5 -32 -3 -98 -14 -130 -21 -14 -3 -36 -7 -50 -9
-14 -2 -47 -9 -75 -15 -27 -6 -65 -13 -84 -16 -18 -2 -37 -7 -43 -10 -5 -3
-20 -8 -34 -10 -43 -6 -67 -12 -208 -49 -76 -19 -143 -38 -147 -41 -5 -3 -17
-7 -26 -9 -25 -4 -292 -94 -328 -109 -16 -7 -46 -19 -65 -26 -19 -7 -57 -22
-85 -35 -27 -12 -79 -35 -115 -51 -131 -58 -351 -175 -486 -260 -76 -48 -141
-90 -144 -94 -3 -3 -27 -21 -55 -40 -27 -18 -64 -45 -81 -59 -17 -14 -48 -39
-69 -56 -22 -16 -50 -40 -62 -52 -13 -11 -41 -35 -61 -51 -58 -48 -252 -243
-288 -292 -8 -11 -9 -22 -1 -40 5 -14 11 -31 13 -39 1 -7 14 -47 27 -90 13
-42 36 -116 51 -166 14 -49 30 -103 35 -120 10 -30 60 -233 67 -268 2 -10 6
-27 9 -37 3 -10 8 -27 10 -37 2 -10 13 -61 25 -113 12 -52 23 -102 25 -110 2
-8 4 -15 5 -15 1 0 3 -19 5 -43 2 -23 7 -47 10 -53 4 -5 8 -24 11 -42 2 -18 6
-43 9 -57 16 -79 19 -97 21 -120 1 -14 3 -25 4 -25 1 0 4 -9 5 -21 1 -11 5
-36 8 -55 4 -19 9 -54 12 -79 3 -25 7 -56 10 -70 8 -38 18 -114 31 -222 2 -21
7 -57 10 -80 3 -24 7 -56 8 -73 10 -97 18 -161 22 -167 3 -4 243 231 534 523
291 291 536 529 545 529 8 0 15 4 15 8 0 14 130 53 185 54 42 2 122 -16 167
-35 79 -36 183 -137 195 -192 1 -5 9 -29 18 -53 30 -84 20 -196 -26 -287 -26
-52 -139 -169 -810 -839 l-779 -780 -1 -155 c-1 -164 -2 -194 -13 -386 -7
-125 -11 -162 -21 -230 -3 -22 -8 -55 -11 -74 -2 -18 -8 -41 -13 -50 -4 -9
-11 -29 -15 -45 l-7 -29 73 7 c40 4 89 9 108 11 19 2 52 6 73 9 93 15 114 18
142 21 45 6 92 13 175 29 41 8 91 17 110 21 19 3 55 11 80 16 25 6 59 13 75
16 17 3 37 9 46 14 9 4 19 6 22 3 3 -3 12 -2 19 2 7 5 18 9 23 9 6 1 28 6 50
12 22 7 51 14 65 16 44 8 387 117 435 138 11 5 49 20 85 33 36 13 88 34 115
47 28 12 55 23 60 24 36 9 444 219 455 234 3 4 13 10 22 14 37 14 299 194 388
267 19 16 61 51 93 77 99 81 231 214 382 383 13 15 62 78 109 140 47 63 89
120 94 125 16 22 130 203 157 250 87 156 117 211 118 220 1 6 4 12 7 15 5 5
65 133 100 215 12 28 26 59 31 70 19 44 86 224 87 235 0 3 6 19 12 35 13 32
79 240 84 265 2 8 10 35 17 60 7 25 13 50 15 57 1 7 10 42 19 79 18 72 23 94
31 134 3 14 9 41 14 60 5 19 12 55 15 79 3 23 7 46 9 50 2 3 7 25 10 47 4 22
9 51 12 64 5 25 8 46 20 135 3 28 8 59 10 70 4 18 7 45 19 155 2 19 7 60 10
90 7 56 9 87 22 285 9 131 9 700 0 800 -9 102 -16 147 -28 161 -5 7 -12 21
-14 33 -2 11 -16 38 -32 58 -80 106 -174 154 -333 169 -48 5 -658 13 -662 9z"/>
</g>
</svg>
