<svg width="24" height="25" viewBox="0 0 24 25" fill="none">
  <path d="M3.36834 20.1025L5.625 21.3034V23.9888C5.625 24.2643 5.83491 24.4877 6.09375 24.4877H11.0625C11.3213 24.4877 11.5312 24.2643 11.5312 23.9888V17.4747C11.5312 15.946 10.4539 14.6782 9.02855 14.5261C9.02302 14.5245 7.04573 14.1959 6.12839 13.2194L5.07567 12.0993C4.72148 11.7222 4.25067 11.5145 3.75 11.5145V7.52275C3.75 6.42222 2.90887 5.52687 1.875 5.52687C0.841125 5.52687 0 6.42222 0 7.52275V14.3008C0 15.5062 0.314719 16.6854 0.910078 17.7108C1.50539 18.7363 2.35547 19.5633 3.36834 20.1025ZM0.9375 7.52275C0.9375 6.97249 1.35806 6.52481 1.875 6.52481C2.39194 6.52481 2.8125 6.97249 2.8125 7.52275V11.782C2.24081 12.1339 1.875 12.7899 1.875 13.5104C1.875 14.0433 2.07009 14.5444 2.42433 14.9215L4.8248 17.4772C5.00775 17.6721 5.30461 17.6722 5.4877 17.4773C5.67075 17.2824 5.6708 16.9665 5.48775 16.7716L3.08728 14.2158C2.91009 14.0273 2.8125 13.7767 2.8125 13.5104C2.8125 13.0881 3.06361 12.7098 3.43744 12.5693C3.43758 12.5692 3.43772 12.5691 3.43786 12.5691H3.43791C3.76116 12.4471 4.14464 12.5195 4.41286 12.805L5.46558 13.9251C6.55242 15.082 8.92697 15.5173 8.9317 15.5187C9.87923 15.6198 10.5938 16.4608 10.5938 17.4747V23.4898H6.5625V20.9949C6.5625 20.8059 6.46214 20.6331 6.30338 20.5487L3.78764 19.2099C2.02964 18.2741 0.9375 16.393 0.9375 14.3008V7.52275Z" fill="#A4351D"/>
  <path d="M11.5312 12.0135C11.5312 12.2891 11.7412 12.5125 12 12.5125C12.2588 12.5125 12.4688 12.2891 12.4688 12.0135V10.5166H14.2631C16.8923 10.5166 19.0312 8.23973 19.0312 5.44106V3.03203C19.0312 2.83024 18.917 2.64827 18.7419 2.57103C18.5667 2.49379 18.3651 2.5365 18.231 2.6792C17.715 3.22852 17.029 3.531 16.2994 3.531C14.7316 3.531 13.3383 4.34068 12.4688 5.5877V1.03614C12.4688 0.760562 12.2588 0.537173 12 0.537173C11.7412 0.537173 11.5312 0.760562 11.5312 1.03614V3.59187C10.6617 2.34484 9.26836 1.53511 7.70062 1.53511C6.97097 1.53511 6.28495 1.23264 5.76895 0.683321C5.63494 0.540615 5.43328 0.497854 5.25811 0.575144C5.08298 0.652435 4.96875 0.834359 4.96875 1.03614V3.44517C4.96875 6.24385 7.1077 8.5207 9.73688 8.5207H11.5312V12.0135ZM16.2994 4.52894C16.938 4.52894 17.5519 4.35639 18.0938 4.03201V5.44106C18.0938 7.68947 16.3754 9.51864 14.2631 9.51864H13.4062L16.0312 7.42297C16.2383 7.25766 16.2803 6.94485 16.125 6.72441C15.9697 6.50396 15.6759 6.4592 15.4688 6.62461L12.4688 9.01967V8.60652C12.4688 6.35816 14.1871 4.52894 16.2994 4.52894ZM5.90625 3.44517V2.03613C6.44817 2.36051 7.06195 2.53305 7.70062 2.53305C9.81286 2.53305 11.5312 4.36228 11.5312 6.61064V7.02379L8.53125 4.62873C8.32416 4.46342 8.03034 4.50808 7.875 4.72853C7.7197 4.94897 7.76166 5.26178 7.96875 5.42708L10.5938 7.52276H9.73688C7.62464 7.52276 5.90625 5.69358 5.90625 3.44517Z" fill="#A4351D"/>
  <path d="M21.5156 19.3975C21.7745 19.3975 21.9844 19.1743 21.9844 18.8989C21.9844 18.6235 21.7745 18.4003 21.5156 18.4003C21.2567 18.4003 21.0469 18.6235 21.0469 18.8989C21.0469 19.1743 21.2567 19.3975 21.5156 19.3975Z" fill="#A4351D"/>
  <path d="M22.125 5.52687C21.0911 5.52687 20.25 6.42222 20.25 7.52275V11.5145C19.7493 11.5145 19.2785 11.7222 18.9244 12.0992L17.8715 13.2194C16.9745 14.1744 14.9796 14.5243 14.9748 14.5258C13.5461 14.6783 12.4688 15.946 12.4688 17.4748V23.9888C12.4688 24.2643 12.6787 24.4877 12.9375 24.4877H17.9062C18.1651 24.4877 18.375 24.2643 18.375 23.9888V21.3034L19.9092 20.4869C20.1407 20.3637 20.2346 20.064 20.1189 19.8175C20.0032 19.571 19.7217 19.4711 19.49 19.5943L17.6966 20.5486C17.5379 20.6332 17.4375 20.8059 17.4375 20.9949V23.4898H13.4062V17.4747C13.4062 16.4608 14.1208 15.6198 15.0717 15.5183C15.0764 15.5169 17.3885 15.1449 18.5343 13.9251L19.5872 12.8048C19.8555 12.5192 20.2394 12.4473 20.5621 12.569H20.5621C20.5623 12.5691 20.5624 12.5692 20.5626 12.5692C20.9364 12.7099 21.1875 13.0881 21.1875 13.5104C21.1875 13.7767 21.0899 14.0273 20.9128 14.2159L18.5123 16.7717C18.3292 16.9666 18.3293 17.2825 18.5123 17.4773C18.6953 17.6721 18.9922 17.6722 19.1752 17.4773L21.5757 14.9215C21.9299 14.5445 22.125 14.0433 22.125 13.5104C22.125 12.7899 21.7592 12.1339 21.1875 11.782V7.52275C21.1875 6.97249 21.6081 6.52481 22.125 6.52481C22.6419 6.52481 23.0625 6.97249 23.0625 7.52275V14.3008C23.0625 15.2137 22.8461 16.12 22.4366 16.9218C22.3129 17.1639 22.397 17.4668 22.6245 17.5985C22.8519 17.73 23.1366 17.6405 23.2602 17.3984C23.7442 16.4509 24 15.3797 24 14.3008V7.52275C24 6.42222 23.1589 5.52687 22.125 5.52687Z" fill="#A4351D"/>
</svg>
