<svg viewBox="0 0 48 48" fill="none">
  <path d="M42.375 0H5.625C2.52338 0 0 2.52338 0 5.625V42.375C0 45.4766 2.52338 48 5.625 48H42.375C45.4766 48 48 45.4766 48 42.375V5.625C48 2.52338 45.4766 0 42.375 0ZM44.25 42.375C44.25 43.4089 43.4089 44.25 42.375 44.25H31.6875V28.9688H37.4803L38.4375 23.1562H31.6875V19.125C31.6875 17.5336 32.9086 16.3125 34.5 16.3125H38.3438V10.5H34.5C29.726 10.5 25.8771 14.3672 25.8771 19.1413V23.1562H20.25V28.9688H25.8771V44.25H5.625C4.59113 44.25 3.75 43.4089 3.75 42.375V5.625C3.75 4.59113 4.59113 3.75 5.625 3.75H42.375C43.4089 3.75 44.25 4.59113 44.25 5.625V42.375Z" fill="#438124"/>
</svg>
