<svg fill="none"
  xmlns="http://www.w3.org/2000/svg">
  <path d="M314 143.5C262.159 99.805 261.833 31 287 0H375V219.5C352 180 349 173 314 143.5Z" fill="#438124" fill-opacity="0.21"/>
  <path d="M47 532.5C21 515 12 496.5 0 474.5V667.5C0 659.5 10.2721 665.012 47 646C89.5 624 93.331 601.5 89.5 585.5C81 550 66.9533 545.93 47 532.5Z" fill="#438124" fill-opacity="0.21"/>
  <path d="M344.5 569C344.5 582.531 333.531 593.5 320 593.5C306.469 593.5 295.5 582.531 295.5 569C295.5 555.469 306.469 544.5 320 544.5C333.531 544.5 344.5 555.469 344.5 569Z" fill="#438124" fill-opacity="0.21"/>
</svg>
