<svg viewBox="0 0 48 48">
  <g fill="#438124">
    <path d="M47.953 14.112c-.113-2.55-.525-4.304-1.116-5.823a11.714 11.714 0 00-2.775-4.257 11.813 11.813 0 00-4.248-2.766C38.286.676 36.54.263 33.99.15 31.421.028 30.606 0 24.089 0c-6.517 0-7.333.028-9.893.14-2.55.113-4.303.526-5.822 1.116a11.712 11.712 0 00-4.258 2.776A11.818 11.818 0 001.35 8.28C.76 9.808.347 11.552.234 14.103c-.122 2.57-.15 3.385-.15 9.902 0 6.517.028 7.332.14 9.892.113 2.55.526 4.304 1.117 5.823a11.837 11.837 0 002.775 4.257 11.813 11.813 0 004.248 2.767c1.529.59 3.272 1.003 5.823 1.115 2.56.113 3.376.14 9.893.14 6.517 0 7.332-.027 9.892-.14 2.55-.112 4.304-.525 5.823-1.116a12.277 12.277 0 007.024-7.023c.59-1.528 1.003-3.272 1.115-5.823.113-2.56.141-3.375.141-9.892 0-6.517-.01-7.333-.122-9.893zM43.63 33.71c-.103 2.344-.497 3.61-.825 4.454a7.963 7.963 0 01-4.557 4.557c-.844.328-2.119.722-4.454.825-2.532.113-3.291.14-9.695.14-6.405 0-7.174-.027-9.696-.14-2.345-.103-3.61-.497-4.454-.825a7.386 7.386 0 01-2.757-1.791 7.463 7.463 0 01-1.791-2.757c-.328-.844-.722-2.12-.825-4.454-.113-2.532-.14-3.291-.14-9.696 0-6.404.027-7.173.14-9.695.103-2.344.497-3.61.825-4.454a7.296 7.296 0 011.8-2.757 7.451 7.451 0 012.757-1.79c.844-.33 2.12-.723 4.454-.826 2.532-.113 3.292-.14 9.696-.14 6.414 0 7.173.027 9.695.14 2.345.103 3.61.497 4.455.825a7.38 7.38 0 012.756 1.79 7.46 7.46 0 011.791 2.758c.328.844.722 2.119.825 4.454.113 2.532.141 3.29.141 9.695s-.028 7.155-.14 9.687z"/>
    <path d="M24.089 11.674c-6.807 0-12.33 5.523-12.33 12.33 0 6.808 5.523 12.331 12.33 12.331 6.808 0 12.33-5.523 12.33-12.33 0-6.808-5.522-12.33-12.33-12.33zm0 20.33a8 8 0 01-7.998-8 8 8 0 117.998 7.999zM39.786 11.187a2.879 2.879 0 11-5.758 0 2.879 2.879 0 015.758 0z"/>
  </g>
  <defs>
    <clipPath id="clip0">
      <path fill="#fff" d="M0 0h48v48H0z"/>
    </clipPath>
  </defs>
</svg>