<svg viewBox="0 0 40 40" fill="none">
  <g clip-path="url(#clip0)">
    <path d="M13.3178 19.1377L24.8761 30.6961C24.9294 29.6705 24.9754 27.407 24.5865 24.695C23.8857 19.8072 22.0831 15.7913 19.3736 13.082C16.6641 10.3725 12.6483 8.56985 7.76051 7.86899C4.12364 7.34743 1.29169 7.60798 1.17294 7.61946C0.591139 7.67508 0.130592 8.13563 0.0749675 8.71743C0.0635612 8.83618 -0.196986 11.6681 0.324499 15.305C1.02536 20.1928 2.82794 24.2087 5.53747 26.9181C8.24692 29.6275 12.2627 31.4302 17.1505 32.131C18.9507 32.3892 20.5531 32.4556 21.7273 32.4556C22.322 32.4556 22.8066 32.4385 23.1515 32.4206L11.5932 20.8624C11.1169 20.3862 11.1169 19.614 11.5932 19.1377C12.0693 18.6616 12.8415 18.6616 13.3178 19.1377Z" fill="#438124"/>
    <path d="M39.9458 16.0785C39.8901 15.4967 39.4296 15.0362 38.8478 14.9805C38.5219 14.9494 30.8128 14.2693 26.3236 18.7585C26.1489 18.9333 25.9822 19.1132 25.8226 19.2972C26.3482 20.8687 26.7442 22.5579 27.0009 24.3488C27.0831 24.9222 27.1471 25.4758 27.1969 26.0047L30.3833 22.8182C30.8595 22.342 31.6317 22.342 32.108 22.8182C32.5844 23.2943 32.5843 24.0665 32.108 24.5429L27.3515 29.2993C27.3504 30.5425 27.2796 31.3529 27.2641 31.5147C27.2368 31.8009 27.1759 32.0772 27.0865 32.3404C29.7955 32.0899 33.5351 31.2354 36.1678 28.6026C40.6569 24.1136 39.9769 16.4046 39.9458 16.0785Z" fill="#438124"/>
  </g>
  <defs>
    <clipPath id="clip0">
      <rect width="40" height="40" fill="white"/>
    </clipPath>
  </defs>
</svg>
