<svg viewBox="0 0 48 48" fill="none">
  <path fill-rule="evenodd" clip-rule="evenodd" d="M39.9178 8.01617C35.7079 3.80127 30.109 1.47903 24.1442 1.47656C11.8532 1.47656 1.85019 11.4793 1.84525 23.7736C1.8436 27.7037 2.87027 31.5401 4.82172 34.9217L1.6582 46.4766L13.4792 43.3757C16.7364 45.1524 20.4034 46.0887 24.1351 46.0898H24.1445C36.4341 46.0898 46.4382 36.0862 46.4429 23.7914C46.4454 17.833 44.1281 12.2308 39.9178 8.01617ZM24.1442 42.324H24.1365C20.811 42.3226 17.5494 41.4289 14.7034 39.7406L14.0269 39.3387L7.01212 41.1789L8.88446 34.3397L8.44364 33.6385C6.58832 30.6876 5.60861 27.2768 5.61026 23.775C5.61411 13.5563 13.9286 5.24268 24.1516 5.24268C29.1021 5.24432 33.7556 7.17462 37.2547 10.6779C40.7539 14.1811 42.6798 18.8377 42.6782 23.7901C42.6738 34.0095 34.3598 42.324 24.1442 42.324ZM34.3104 28.443C33.7534 28.164 31.014 26.8165 30.5031 26.6303C29.9928 26.4444 29.6209 26.3518 29.2498 26.9094C28.8782 27.4669 27.8106 28.7221 27.4854 29.0937C27.1602 29.4656 26.8356 29.5123 26.2783 29.2332C25.721 28.9545 23.9259 28.3659 21.7975 26.4677C20.1413 24.9903 19.0232 23.1658 18.698 22.6082C18.3734 22.0501 18.6953 21.7776 18.9425 21.4711C19.5456 20.7221 20.1496 19.9369 20.3352 19.5653C20.5212 19.1934 20.4281 18.8679 20.2886 18.5891C20.1496 18.3104 19.0353 15.5679 18.5711 14.452C18.1185 13.366 17.6595 13.5126 17.3173 13.4956C16.9927 13.4794 16.621 13.4761 16.2494 13.4761C15.8781 13.4761 15.2744 13.6154 14.7635 14.1735C14.2529 14.7313 12.8137 16.079 12.8137 18.8215C12.8137 21.564 14.8102 24.2133 15.0887 24.5852C15.3672 24.9571 19.0177 30.5848 24.6067 32.998C25.9361 33.5726 26.9737 33.9151 27.7832 34.1719C29.118 34.5959 30.3323 34.5361 31.2925 34.3927C32.3631 34.2326 34.5886 33.0447 35.0534 31.7433C35.5175 30.4417 35.5175 29.3263 35.378 29.0937C35.239 28.8614 34.8674 28.7221 34.3104 28.443Z" fill="#438124"/>
</svg>
